<?xml version="1.0" standalone="no"?><!DOCTYPE svg PUBLIC "-//W3C//DTD SVG 1.1//EN" "http://www.w3.org/Graphics/SVG/1.1/DTD/svg11.dtd"><svg t="1522303109796" class="icon" style="" viewBox="0 0 1024 1024" version="1.1" xmlns="http://www.w3.org/2000/svg" p-id="1267" data-spm-anchor-id="a313x.7781069.0.i7" xmlns:xlink="http://www.w3.org/1999/xlink" width="48" height="48"><defs><style type="text/css"></style></defs><path d="M512.268258 125.80479c-212.948694 0-386.19521 173.245493-386.19521 386.19521 0 212.949718 173.246516 386.19521 386.19521 386.19521s386.19521-173.245493 386.19521-386.19521c0-212.949718-173.24754-386.19521-386.19521-386.19521z m0 736.184811c-192.983954 0-349.989601-157.004623-349.989601-349.989601 0-192.984978 157.004623-349.989601 349.989601-349.989601S862.257859 319.015022 862.257859 512c0 192.983954-157.005647 349.989601-349.989601 349.989601z m203.958981-349.927144c0 9.999264-8.105076 17.917993-18.103317 17.917993H524.752492v167.871119c0 9.999264-7.919753 18.103316-17.917993 18.103316s-17.917993-8.104052-17.917994-18.103316V529.98045H326.41157c-9.99824 0-18.103316-7.918729-18.103317-17.917993s8.105076-17.917993 18.103317-17.917993h162.504935V328.552514c0-9.999264 7.919753-18.103316 17.917994-18.103316s17.917993 8.104052 17.917993 18.103316v165.59195h173.37143c9.99824 0 18.103316 7.919753 18.103317 17.917993z" fill="#cdcdcd" p-id="1268" data-spm-anchor-id="a313x.7781069.0.i4" class="selected"></path></svg>