<svg id="图层_1" data-name="图层 1" xmlns="http://www.w3.org/2000/svg" viewBox="0 0 97.72 63.71"><defs><style>.cls-1{fill:#6a8dfc;}.cls-2{fill:#59d788;}.cls-3{fill:#fc66a8;}</style></defs><title>未标题-b</title><path class="cls-1" d="M859.37,675.29c6.25,0,11.06,1.43,14.63,4.46,3.39,2.86,5.09,6.69,5.09,11.6a15.25,15.25,0,0,1-2.68,9.1,15.84,15.84,0,0,1-7.41,5.26c4.19.8,7.41,2.5,9.55,5.09s3.21,6.07,3.21,10.35c0,6.42-2.23,11.06-6.6,14.1Q869.54,739,859.37,739H830.28V675.29Zm-19.36,27h16.77c4.46,0,7.67-.8,9.64-2.32s2.94-4.1,2.94-7.49q0-4.82-2.94-7c-2-1.52-5.18-2.23-9.46-2.23H840ZM840,731h18a20.44,20.44,0,0,0,9.64-2,8.73,8.73,0,0,0,4.37-8c0-3.75-1.16-6.51-3.39-8.21s-5.71-2.5-10.35-2.5H840Z" transform="translate(-830.28 -675.29)"/><rect class="cls-2" x="60.99" y="0.58" width="36.73" height="7.35" rx="3.67" ry="3.67"/><rect class="cls-1" x="60.99" y="56.36" width="36.73" height="7.35" rx="3.67" ry="3.67"/><rect class="cls-3" x="75.68" y="28.47" width="22.04" height="7.35" rx="3.67" ry="3.67"/></svg>