<?xml version="1.0" standalone="no"?><!DOCTYPE svg PUBLIC "-//W3C//DTD SVG 1.1//EN" "http://www.w3.org/Graphics/SVG/1.1/DTD/svg11.dtd"><svg t="1522392838149" class="icon" style="" viewBox="0 0 1024 1024" version="1.1" xmlns="http://www.w3.org/2000/svg" p-id="2940" xmlns:xlink="http://www.w3.org/1999/xlink" width="48" height="48"><defs><style type="text/css"></style></defs><path d="M320.914 638.132l0.12-0.027c0.148-0.193 0.29-0.314 0.388-0.434l0.968-0.991a0.657 0.657 0 0 0 0.263-0.217l330.687-330.71c8.7-8.752 8.7-22.893 0-31.69-8.774-8.751-22.965-8.751-31.716 0l-330.49 330.54-1.452 1.352c-0.267 0.267-0.582 0.603-0.844 0.87l-3.725 3.699a20.827 20.827 0 0 0-3.652 4.86c-40.61 49.845-37.392 122.412 8.585 168.411 48.006 47.863 124.56 49.556 174.457 3.795 0.189-0.194 0.434-0.387 0.701-0.628L845.828 406.36c36.571-36.479 56.757-85.066 56.757-136.723 0.026-51.51-19.94-99.953-56.324-136.286-75.296-75.277-197.878-75.277-273.248 0L383.499 322.986 253.208 453.448l-58.91 58.956c-0.147 0.17-0.32 0.29-0.437 0.484-97.441 99.788-96.45 261.191 2.13 359.646 49.675 49.675 115.28 74.573 180.957 74.573 63.525 0 127.176-23.303 176.365-70.03 0.387-0.24 0.747-0.604 1.089-0.868 0.36-0.34 0.627-0.603 0.991-0.943l2.393-2.343c0.096-0.124 0.142-0.124 0.263-0.244l330.688-330.713c0.052-0.046 0.148-0.239 0.17-0.262 0.581-0.508 1.089-1.065 1.693-1.647 8.916-8.482 9.355-22.6 0.917-31.665-8.558-8.99-22.722-9.4-31.74-0.895-0.94 0.895-1.885 1.813-2.877 2.9L526.456 840.893l-0.096 0.12a17.1 17.1 0 0 0-2.341 2.056c-82.407 79.865-215.164 78.925-296.316-2.225-81.268-81.222-82.065-214.242-1.835-296.625 5.682-5.682 375.19-375.452 378.86-379.178 57.872-57.821 152.002-57.821 209.824 0 27.894 27.894 43.265 65.028 43.265 104.596-0.068 39.67-15.565 76.942-43.676 104.962L433.778 754.932c-32.105 29.13-81.147 27.894-111.97-2.877-30.797-30.72-31.79-79.94-2.37-112.089 0.56-0.529 1.067-1.185 1.476-1.834z" fill="#8a8a8a" p-id="2941" data-spm-anchor-id="a313x.7781069.0.i1" class="selected"></path></svg>