<?xml version="1.0" standalone="no"?><!DOCTYPE svg PUBLIC "-//W3C//DTD SVG 1.1//EN" "http://www.w3.org/Graphics/SVG/1.1/DTD/svg11.dtd"><svg t="1521523629995" class="icon" style="" viewBox="0 0 1337 1024" version="1.1" xmlns="http://www.w3.org/2000/svg" p-id="4050" xmlns:xlink="http://www.w3.org/1999/xlink" width="261.1328125" height="200"><defs><style type="text/css"></style></defs><path d="M780.089931 224.629153l337.480854 0 0 67.52951-337.480854 0 0-67.52951Z" fill="#59D788" p-id="4051"></path><path d="M780.089931 737.157017l337.480854 0 0 67.52951-337.480854 0 0-67.52951Z" fill="#6A8DFC" p-id="4052"></path><path d="M915.056342 480.893085l202.514443 0 0 67.52951-202.514443 0 0-67.52951Z" fill="#FC66A8" p-id="4053"></path><path d="M337.869807 706.02232V219.313473h-118.185903v585.317489h118.185903v-98.608642zM681.240509 546.700092q-28.745419-37.524626-82.254129-53.101235a138.744804 138.744804 0 0 0 82.254129-126.872502 132.521569 132.521569 0 0 0-17.965887-68.529672 150.28372 150.28372 0 0 0-44.914718-48.915369 152.321088 152.321088 0 0 0-61.121059-24.077993q-34.135185-5.778718-103.609457-5.79724h-32.227467V316.718216q69.474271 0.185215 85.328703 1.981804 29.634453 3.593177 44.451679 20.558902t15.076528 44.136813q0 28.356467-17.373198 45.711144T501.174164 450.073254q-16.002605 1.852153-79.7352 1.981804v97.423264h11.872303q80.642755 0 104.813355 8.390255t36.931937 26.745093q12.779858 18.373361 12.779858 44.710981 0 31.153219-16.576772 49.711795a73.234142 73.234142 0 0 1-42.914392 23.355653q-17.169461 3.593177-81.050229 3.593178h-25.930146v98.59012q110.795811-0.814947 140.02279-3.982129 47.100259-5.186029 79.25364-27.7823a156.432868 156.432868 0 0 0 50.711958-60.28759 173.97276 173.97276 0 0 0 18.521533-77.660788q0.111129-50.61935-28.63429-88.162498z" fill="#294499" p-id="4054"></path></svg>