<?xml version="1.0" standalone="no"?><!DOCTYPE svg PUBLIC "-//W3C//DTD SVG 1.1//EN" "http://www.w3.org/Graphics/SVG/1.1/DTD/svg11.dtd"><svg t="1523194054557" class="icon" style="" viewBox="0 0 2463 1024" version="1.1" xmlns="http://www.w3.org/2000/svg" p-id="3051" xmlns:xlink="http://www.w3.org/1999/xlink" width="481.0546875" height="200"><defs><style type="text/css"></style></defs><path d="M779.416263 326.193697c-13.096149 5.508198-18.024537 23.52013-10.991186 40.221187s23.343666 25.788953 36.439815 20.280755 18.024537-23.52013 10.991186-40.221187-23.343666-25.788953-36.439815-20.280755z m8.734967 40.044723c-2.193195 0-3.983044-6.554377-3.983044-14.633907s1.777245-14.633907 3.983044-14.633907 3.983044 6.554377 3.983045 14.633907-1.827663 14.633907-3.983045 14.633907zM692.205235 326.193697c-13.096149-5.508198-29.406465 3.567094-36.439816 20.280755s-2.104963 34.712989 10.991187 40.221187 29.419069-3.516675 36.452419-20.280755 2.092359-34.712989-11.00379-40.221187z m-8.734968 40.044723c-2.193195 0-3.983044-6.554377-3.983045-14.633907s1.777245-14.633907 3.983045-14.633907 3.983044 6.554377 3.983044 14.633907-1.76464 14.633907-3.983044 14.633907zM753.261777 387.577959a15.037253 15.037253 0 0 1-13.865028-9.163523c6.995537-2.092359 12.213829-9.84417 12.21383-15.869156 0-7.033351-7.096374-9.050082-15.856551-9.050082s-15.856551 2.016731-15.85655 9.050082c0 6.024985 5.218292 13.764192 12.213829 15.869156a15.037253 15.037253 0 0 1-13.865028 9.163523 2.445287 2.445287 0 1 0 0 4.903178 19.915222 19.915222 0 0 0 17.457331-10.348353 19.915222 19.915222 0 0 0 17.457331 10.348353 2.445287 2.445287 0 1 0 0-4.903178z" fill="#294499" p-id="3052"></path><path d="M735.111195 142.293004a206.135157 206.135157 0 1 0 206.135157 206.147761 206.135157 206.135157 0 0 0-206.135157-206.147761zM853.329468 282.796159c-1.008366 12.970104-3.655326 39.137193-18.52872 75.38794a94.672934 94.672934 0 0 1 7.789625 36.855766c0 27.730057-13.474287 49.876288-34.927266 64.573218a84.097699 84.097699 0 0 0-3.781372-15.301949c-3.025097-7.562743-9.113105-8.054321-12.49113-7.66358-26.066253 3.075515-40.42286 19.209366-45.830221 25.28477l-0.466369 0.529392a13.386055 13.386055 0 0 1-2.067149 1.827663 9.314778 9.314778 0 0 0-1.121807-0.113441 19.511876 19.511876 0 0 0-3.920022 0.478973 9.869379 9.869379 0 0 1-4.4116 0 19.562294 19.562294 0 0 0-3.894812-0.478973 9.339987 9.339987 0 0 0-1.172225 0.113441 13.386055 13.386055 0 0 1-2.06715-1.827663l-0.466369-0.529392c-5.407361-6.075403-19.763968-22.209254-45.830221-25.28477-3.378025-0.390742-9.466033 0.075627-12.49113 7.650975a84.034676 84.034676 0 0 0-3.781371 15.301949C642.492806 444.941362 628.968101 422.744712 628.968101 395.039865a94.19396 94.19396 0 0 1 7.083769-35.154149c-15.478413-37.120462-18.201001-63.91778-19.234575-77.089557-1.083993-13.865028-1.260457-41.254761 1.915894-56.808803s10.42398-24.604123 18.616952-23.646175 18.52872 8.432458 42.376568 36.654093a348.491184 348.491184 0 0 1 37.044835 53.582032 98.177005 98.177005 0 0 1 36.704511-0.239487 348.768484 348.768484 0 0 1 36.956603-53.35515c23.835244-28.221635 34.183597-35.696146 42.376568-36.654093s15.4406 8.104739 18.616952 23.646176 2.999888 42.968983 1.90329 56.821407z" fill="#294499" p-id="3053"></path><path d="M798.272701 446.542143c-1.046179-2.609146-2.697378-4.285554-6.138426-3.882208-24.553705 2.886447-37.813713 18.553929-42.477405 23.822639a21.087448 21.087448 0 0 1-5.684662 4.398996 3.415839 3.415839 0 0 0-2.016731-0.668043c-1.90329 0-3.781371 0.794088-6.113217 0.794088s-4.24774-0.794088-6.113217-0.794088a3.403234 3.403234 0 0 0-2.029336 0.693252 21.100052 21.100052 0 0 1-5.722475-4.424205c-4.71411-5.281315-17.9237-20.936193-42.477405-23.822639-3.441048-0.403346-5.041828 1.260457-6.138426 3.882208S668.042272 463.318827 668.042272 483.750837a107.491783 107.491783 0 0 0 3.907417 30.11232 4.562855 4.562855 0 0 0 4.525041 3.163748c4.890574-0.226882 21.516003-3.075515 36.465024-12.390294a99.172766 99.172766 0 0 0 14.41963-10.940768 3.441048 3.441048 0 0 0 2.357055 0.970552c1.789849 0 4.348577-0.74367 6.302285-0.743669s4.323368 0.74367 5.911544 0.743669a3.504071 3.504071 0 0 0 2.281427-0.983156 99.160161 99.160161 0 0 0 14.432234 10.940768c14.949021 9.314778 31.511428 12.163411 36.465025 12.390293a4.562855 4.562855 0 0 0 4.525041-3.163747 107.479178 107.479178 0 0 0 3.907417-30.112321c0.012605-20.419405-4.159508-34.397875-5.268711-37.196089z" fill="#BE1A23" p-id="3054"></path><path d="M224.096671 480.309789V149.086868h-80.429769v398.342262h80.429769v-67.119341zM457.772816 371.834849q-19.562294-25.536861-55.976901-36.137305a94.420843 94.420843 0 0 0 55.976901-86.404335 90.185707 90.185707 0 0 0-12.226434-46.636914 102.27349 102.27349 0 0 0-30.566086-33.288672 103.659993 103.659993 0 0 0-41.595084-16.385943q-23.230225-3.932626-70.509971-3.945231h-21.931954v66.312649Q328.248242 215.538167 339.062964 216.798624q20.167314 2.445287 30.250971 13.991074t10.184494 30.024089q0 19.297598-11.823088 31.108081T335.281593 306.139824q-10.890349 1.260457-54.262679 1.34869v66.300044h8.07953q54.880303 0 71.329268 5.709871t25.133515 18.201q8.697154 12.503735 8.697154 30.427435 0 21.200889-11.281091 33.830669a49.838474 49.838474 0 0 1-29.204791 15.894364q-11.684437 2.445287-55.157604 2.445287h-17.646399v67.119342q75.400545-0.554601 95.290558-2.709983 32.053424-3.52928 53.93496-18.906857a106.458208 106.458208 0 0 0 34.511316-41.027879 118.394737 118.394737 0 0 0 12.604571-52.850967q0.037814-34.473502-19.537085-60.085991zM1171.746145 212.714743a56.165969 56.165969 0 0 1 19.52448 9.604683q16.978357 13.449077 22.146232 44.115999l80.429769-3.52928Q1291.968545 208.051052 1254.04139 175.203539q-29.734183-25.788953-82.295245-31.347568zM1032.453029 333.579976q24.364636 21.831117 82.421291 37.259112v-84.160721q-21.805908-7.411488-30.250971-14.495257-11.974343-10.00803-11.974343-24.188172 0-15.491018 12.768431-24.730169 11.949133-8.671945 29.444278-12.112993v-67.61092q-29.368651 2.911656-52.132506 12.604572-32.469375 13.865028-49.725034 40.334627A102.374327 102.374327 0 0 0 995.761122 253.427508q0 47.279746 36.691907 80.152468zM1289.372003 367.952641A111.903383 111.903383 0 0 0 1245.331631 327.466759q-24.856214-13.083545-73.598091-25.436025v83.543098q10.512212 2.936865 15.856551 4.789737 20.646288 7.33586 28.990513 17.255658a36.275956 36.275956 0 0 1 8.293808 24.049522q0 22.007581-19.700945 38.443942-12.705408 10.600444-33.376904 14.344002v69.010027q35.002894-2.810819 60.69101-13.53731 34.776012-14.533071 53.79631-44.431113a117.323348 117.323348 0 0 0 19.020298-64.119453q-0.037814-37.738086-15.932178-63.426203zM1114.886924 482.301311a72.400657 72.400657 0 0 1-26.58304-14.217956q-21.604235-18.478301-28.662795-57.880191l-78.249178 7.562743q7.877857 66.804227 48.36374 101.756703 31.763519 27.402338 85.143878 33.263463zM1542.912952 212.714743a56.165969 56.165969 0 0 1 19.524481 9.604683q16.978357 13.449077 22.146231 44.115999l80.429769-3.52928q-1.90329-54.880303-39.805236-87.765629-29.734183-25.788953-82.295245-31.347568zM1403.619836 333.579976q24.377241 21.868931 82.459104 37.271717v-84.173326q-21.805908-7.411488-30.25097-14.495257-11.961738-10.083657-11.961738-24.188172 0-15.491018 12.76843-24.730169 11.949133-8.671945 29.444278-12.112993v-67.61092q-29.368651 2.911656-52.132506 12.604572-32.469375 13.865028-49.725033 40.334627a102.374327 102.374327 0 0 0-17.255658 56.922244q-0.025209 47.304956 36.654093 80.177677zM1660.526205 367.952641a111.903383 111.903383 0 0 0-44.015162-40.485882q-24.856214-13.083545-73.598091-25.436025v83.543098q10.512212 2.936865 15.85655 4.789737 20.646288 7.33586 28.990514 17.255658a36.275956 36.275956 0 0 1 8.293808 24.049522q0 22.007581-19.700945 38.443942-12.705408 10.600444-33.376904 14.344002v69.010027q35.002894-2.810819 60.69101-13.53731 34.776012-14.533071 53.79631-44.431113a117.323348 117.323348 0 0 0 18.94467-64.094244q0-37.763295-15.88176-63.451412zM1486.07894 482.301311a72.400657 72.400657 0 0 1-26.58304-14.217956q-21.604235-18.478301-28.662795-57.880191l-78.249178 7.562743q7.877857 66.804227 48.36374 101.756703 31.763519 27.402338 85.143878 33.263463z" fill="#294499" p-id="3055"></path></svg>