<?xml version="1.0" standalone="no"?><!DOCTYPE svg PUBLIC "-//W3C//DTD SVG 1.1//EN" "http://www.w3.org/Graphics/SVG/1.1/DTD/svg11.dtd"><svg t="1522048176195" class="icon" style="" viewBox="0 0 1024 1024" version="1.1" xmlns="http://www.w3.org/2000/svg" p-id="2926" xmlns:xlink="http://www.w3.org/1999/xlink" width="48" height="48"><defs><style type="text/css"></style></defs><path d="M512 0C229.376 0 0 229.376 0 512s229.376 512 512 512 512-229.376 512-512S794.624 0 512 0z m209.92 594.432c-11.776 12.8-31.744 13.824-44.544 2.048l-136.704-136.704v343.552c0 17.408-14.336 31.744-31.744 31.744-17.408 0-31.744-14.336-31.744-31.744V459.776l-136.704 136.704c-12.288 11.264-30.72 11.264-43.008 0-12.8-11.776-13.824-31.744-2.048-44.544l190.464-190.976c4.608-4.608 10.752-7.68 17.408-8.704h9.728c6.656 1.024 12.8 4.096 17.408 8.704l190.976 190.976c11.264 11.776 11.264 30.72 0.512 42.496z m0-278.528H302.08c-17.408 0-31.744-14.336-31.744-31.744 0-17.408 14.336-31.744 31.744-31.744h419.84c17.408 0 31.744 14.336 31.744 31.744 0 17.408-14.336 31.744-31.744 31.744z" fill="#dfe6fb" p-id="2927" data-spm-anchor-id="a313x.7781069.0.i0" class="selected"></path></svg>