<svg id="图层_1" data-name="图层 1" xmlns="http://www.w3.org/2000/svg" viewBox="0 0 1045.43 640"><defs><style>.cls-1{fill:#29449a;}.cls-2{fill:#68bd81;}.cls-3{fill:#ea639e;}</style></defs><title>虚拟租赁合同</title><polygon class="cls-1" points="137.42 532.76 137.42 362.56 137.42 256.63 137.42 109.44 137.42 3.5 8.9 3.5 8.9 640 137.42 640 137.42 532.76"/><path class="cls-1" d="M510.8,359.52q-31.26-40.8-89.44-57.74,41.24-18.66,65.34-56a148.27,148.27,0,0,0,24.1-82.06q0-41.24-19.54-74.46T442.42,36.07Q413.11,16.1,376,9.8T263.33,3.51h-35v106q75.54.19,92.79,2.15,32.13,3.91,48.41,22.36t16.28,48q0,30.84-18.89,49.71T315,254.46q-17.41,2.08-86.71,2.16V362.56h12.9q87.7,0,114,9.12t40.16,29.09q13.89,20,13.89,48.62,0,33.87-18,54.06t-46.67,25.4q-18.67,3.91-88.14,3.91h-28.1V640q120.47-.88,152.27-4.32,51.23-5.64,86.18-30.18t55.14-65.56q20.19-41,20.19-84.45Q542.07,400.35,510.8,359.52Z"/><rect class="cls-2" x="657.1" width="379.42" height="75.93" rx="37.91" ry="37.91"/><rect class="cls-1" x="657.1" y="564.07" width="379.42" height="75.93" rx="37.91" ry="37.91"/><rect class="cls-3" x="808.85" y="282.04" width="227.68" height="75.93" rx="37.91" ry="37.91"/></svg>