<svg id="图层_1" data-name="图层 1" xmlns="http://www.w3.org/2000/svg" viewBox="0 0 2388.27 640"><defs><style>.cls-1{fill:#29449a;}.cls-2{fill:#bf1a23;}</style></defs><title>虚拟租赁合同</title><path class="cls-1" d="M991.34,285.48C971,294,963.36,322,974.27,347.92s36.23,40,56.56,31.48,28-36.51,17.07-62.44S1011.67,276.92,991.34,285.48Zm13.57,62.16c-3.41,0-6.18-10.17-6.18-22.73s2.77-22.73,6.18-22.73,6.18,10.17,6.18,22.73S1008.32,347.64,1004.9,347.64Z"/><path class="cls-1" d="M856,285.48c-20.33-8.55-45.66,5.54-56.56,31.48s-3.26,53.89,17.07,62.44,45.66-5.54,56.56-31.48S876.3,294,856,285.48ZM842.4,347.64c-3.41,0-6.18-10.17-6.18-22.73s2.77-22.73,6.18-22.73,6.18,10.17,6.18,22.73S845.82,347.64,842.4,347.64Z"/><path class="cls-1" d="M950.75,380.77a23.33,23.33,0,0,1-21.46-14.23c10.87-3.26,19-15.27,19-24.63,0-10.92-11-14.05-24.61-14.05S899,331,899,341.91c0,9.36,8.1,21.38,19,24.63a23.33,23.33,0,0,1-21.46,14.23,3.8,3.8,0,1,0,0,7.61,30.92,30.92,0,0,0,27.1-16.07,30.92,30.92,0,0,0,27.1,16.07,3.8,3.8,0,1,0,0-7.61Z"/><path class="cls-1" d="M922.56,0c-176.73,0-320,143.27-320,320s143.27,320,320,320,320-143.27,320-320S1099.29,0,922.56,0ZM1106.1,218.1c-1.57,20.12-5.68,60.76-28.75,117a147,147,0,0,1,12.08,57.21c0,43-20.91,77.42-54.22,100.23-2-12-4.5-20.4-5.84-23.76-4.69-11.78-14.14-12.5-19.39-11.89-40.45,4.77-62.75,29.82-71.14,39.25l-.73.81a20.77,20.77,0,0,1-3.2,2.83,14.46,14.46,0,0,0-1.73-.18,30.3,30.3,0,0,0-6.08.74,15.32,15.32,0,0,1-6.85,0,30.36,30.36,0,0,0-6-.74,14.49,14.49,0,0,0-1.81.18,20.78,20.78,0,0,1-3.21-2.84l-.73-.81c-8.39-9.43-30.68-34.48-71.14-39.25-5.24-.6-14.7.11-19.38,11.89-1.34,3.36-3.84,11.72-5.84,23.76-33.31-22.82-54.22-57.22-54.22-100.23a146.23,146.23,0,0,1,11-54.58c-24-57.63-28.26-99.23-29.85-119.67-1.68-21.49-1.95-64,3-88.19s16.19-38.2,28.9-36.72,28.77,13.08,65.78,56.9a541,541,0,0,1,57.51,83.18,152.4,152.4,0,0,1,57-.38,541.41,541.41,0,0,1,57.3-82.8c37-43.81,53.07-55.41,65.78-56.9s24,12.57,28.9,36.72S1107.78,196.61,1106.1,218.1Z"/><path class="cls-2" d="M1020.62,472.3c-1.62-4.06-4.19-6.65-9.53-6-38.12,4.49-58.62,28.79-65.95,37a32.73,32.73,0,0,1-8.82,6.83,5.3,5.3,0,0,0-3.14-1c-2.95,0-5.87,1.22-9.49,1.22s-6.59-1.22-9.49-1.22a5.28,5.28,0,0,0-3.16,1.07,32.76,32.76,0,0,1-8.89-6.87c-7.33-8.2-27.83-32.5-65.95-37-5.34-.63-7.92,2-9.53,6-1.73,4.33-8.2,26-8.2,57.76,0,27.48,5.46,44,6.06,46.74a7.08,7.08,0,0,0,7,4.92c7.6-.36,33.4-4.78,56.6-19.24a153.94,153.94,0,0,0,22.38-17A5.35,5.35,0,0,0,914.2,547c2.79,0,6.75-1.16,9.8-1.16s6.71,1.16,9.17,1.16a5.45,5.45,0,0,0,3.55-1.53,153.92,153.92,0,0,0,22.4,17c23.21,14.46,49,18.88,56.6,19.24a7.08,7.08,0,0,0,7-4.92c.6-2.71,6.06-19.26,6.06-46.74C1028.81,498.34,1022.34,476.64,1020.62,472.3Z"/><polygon class="cls-1" points="129.3 524.72 129.3 359.38 129.3 256.45 129.3 113.46 129.3 10.55 4.45 10.55 4.45 628.9 129.3 628.9 129.3 524.72"/><path class="cls-1" d="M492,356.42q-30.37-39.64-86.89-56.1,40.07-18.13,63.48-54.41A144,144,0,0,0,492,166.19q0-40.07-19-72.34T425.61,42.18q-28.47-19.4-64.54-25.52T251.62,10.55h-34V113.48q73.39.19,90.15,2.09,31.21,3.79,47,21.72t15.82,46.61q0,30-18.35,48.3t-50.41,22.14q-16.92,2-84.24,2.1V359.37h12.53q85.2,0,110.72,8.86t39,28.26q13.49,19.4,13.5,47.24,0,32.9-17.5,52.51T330.5,520.92q-18.14,3.8-85.63,3.8h-27.3V628.88q117-.86,147.93-4.2,49.77-5.48,83.73-29.32t53.57-63.69q19.61-39.86,19.61-82Q522.42,396.08,492,356.42Z"/><path class="cls-1" d="M1600.39,109.32q18,5.2,30.31,14.9,26.36,20.88,34.38,68.54l124.85-5.48q-3-85.2-61.79-136.24Q1682,11,1600.39,2.38Z"/><path class="cls-1" d="M1384.15,296.95q37.83,33.9,128,57.84V224.13q-33.86-11.51-47-22.51-18.57-15.6-18.56-37.54,0-24,19.82-38.38,18.55-13.47,45.7-18.8V1.94q-45.59,4.51-80.92,19.57Q1380.78,43,1354,84.15t-26.79,88.37Q1327.21,245.91,1384.15,296.95Z"/><path class="cls-1" d="M1783,350.31q-24.68-39.86-68.33-62.85-38.58-20.31-114.25-39.48v129.7q16.31,4.56,24.62,7.43,32.05,11.38,44.92,26.78t12.87,37.33q0,34.17-30.58,59.69-19.72,16.46-51.82,22.28V638.31q54.34-4.36,94.21-21,54-22.56,83.52-69t29.53-99.54Q1807.64,390.17,1783,350.31Z"/><path class="cls-1" d="M1512.11,527.8a112.39,112.39,0,0,1-41.28-22.07q-33.53-28.68-44.5-89.84l-121.48,11.81q12.23,103.76,75.08,158,49.31,42.53,132.17,51.63Z"/><path class="cls-1" d="M2176.57,109.32q18,5.2,30.31,14.9,26.36,20.88,34.38,68.54l124.85-5.48q-3-85.2-61.79-136.24-46.16-40-127.75-48.66Z"/><path class="cls-1" d="M1960.33,296.95q37.83,33.9,128,57.84V224.13q-33.86-11.51-47-22.51-18.57-15.6-18.56-37.54,0-24,19.82-38.38,18.55-13.47,45.7-18.8V1.94q-45.59,4.51-80.92,19.57Q1957,43,1930.18,84.15t-26.79,88.37Q1903.39,245.91,1960.33,296.95Z"/><path class="cls-1" d="M2359.15,350.31q-24.68-39.86-68.33-62.85-38.58-20.31-114.25-39.48v129.7q16.31,4.56,24.62,7.43,32.05,11.38,44.92,26.78T2259,449.22q0,34.17-30.58,59.69-19.72,16.46-51.82,22.28V638.31q54.34-4.36,94.21-21,54-22.56,83.52-69t29.53-99.54Q2383.82,390.17,2359.15,350.31Z"/><path class="cls-1" d="M2088.29,527.8A112.39,112.39,0,0,1,2047,505.74q-33.53-28.68-44.5-89.84L1881,427.71q12.23,103.76,75.08,158,49.31,42.53,132.17,51.63Z"/></svg>