<?xml version="1.0" standalone="no"?><!DOCTYPE svg PUBLIC "-//W3C//DTD SVG 1.1//EN" "http://www.w3.org/Graphics/SVG/1.1/DTD/svg11.dtd"><svg t="1521687607669" class="icon" style="" viewBox="0 0 1024 1024" version="1.1" xmlns="http://www.w3.org/2000/svg" p-id="2203" xmlns:xlink="http://www.w3.org/1999/xlink" width="32" height="32"><defs><style type="text/css"></style></defs><path d="M912.133 263.327v-1.334c0-0.242 0-0.607-0.122-0.85v-0.485c0-0.364-0.122-0.607-0.122-0.971v-0.364c0-0.364-0.122-0.729-0.242-1.092 0-0.122 0-0.242-0.122-0.364-0.122-0.364-0.122-0.729-0.242-1.092 0-0.122 0-0.242-0.122-0.364-0.122-0.364-0.242-0.729-0.242-0.971 0-0.122-0.122-0.242-0.122-0.364-0.122-0.364-0.242-0.607-0.364-0.971 0-0.122-0.122-0.242-0.122-0.485-0.122-0.242-0.242-0.607-0.364-0.85-0.122-0.242-0.122-0.364-0.242-0.607s-0.242-0.485-0.242-0.607l-0.364-0.729c-0.122-0.122-0.122-0.364-0.242-0.485-0.122-0.364-0.364-0.607-0.485-0.971 0-0.122-0.122-0.242-0.122-0.242l-0.729-1.092s0-0.122-0.122-0.122c-0.607-0.971-1.334-1.821-2.063-2.67l-102.915-125.853c-6.19-7.646-15.534-11.286-24.637-10.559-0.729 0-1.456-0.122-2.063-0.122h-526.958c-10.923 0-20.511 6.068-25.486 15.050l-99.396 121.605c-0.122 0.122-0.122 0.242-0.242 0.242-0.242 0.364-0.607 0.729-0.85 1.092v0.122l-0.729 1.092c0 0.122-0.122 0.122-0.122 0.242-0.242 0.364-0.485 0.607-0.607 0.971-0.122 0.122-0.122 0.242-0.242 0.364-0.122 0.242-0.364 0.607-0.485 0.85-0.122 0.242-0.242 0.364-0.242 0.607-0.122 0.242-0.242 0.485-0.364 0.607l-0.364 0.729c-0.122 0.122-0.122 0.364-0.242 0.485-0.122 0.242-0.242 0.607-0.364 0.971 0 0.122-0.122 0.242-0.122 0.364l-0.364 1.092c0 0.122 0 0.122-0.122 0.242l-0.364 1.092v0.242c-0.122 0.364-0.242 0.729-0.242 1.092v0.242c-0.122 0.364-0.122 0.729-0.242 1.092v0.242c0 0.364-0.122 0.729-0.122 1.092v0.364c0 0.364-0.122 0.607-0.122 0.971v4.005c0 0.242 0 0.607 0.122 0.85v0.485c0 0.364 0.122 0.607 0.122 0.971v0.364c0 0.364 0.122 0.729 0.122 1.092 0 0.122 0 0.242 0.122 0.364 0.122 0.364 0.122 0.729 0.242 1.092 0 0.122 0 0.242 0.122 0.364 0.122 0.364 0.122 0.729 0.242 0.971 0 0.122 0.122 0.242 0.122 0.364 0.122 0.364 0.242 0.607 0.364 0.971 0 0.122 0.122 0.242 0.122 0.485 0.122 0.242 0.242 0.607 0.364 0.85 0.122 0.242 0.122 0.364 0.242 0.607s0.242 0.485 0.242 0.729l0.364 0.729c0.122 0.122 0.122 0.364 0.242 0.485 0.122 0.364 0.364 0.607 0.485 0.971 0 0.122 0.122 0.242 0.122 0.242 0.242 0.364 0.485 0.729 0.607 1.092 0 0 0 0.122 0.122 0.122 0.607 0.971 1.214 1.821 1.942 2.791l184.957 232.653c-30.098 41.748-47.938 92.843-47.938 148.185 0 139.81 113.838 253.648 253.648 253.648s253.648-113.838 253.648-253.648c0-55.099-17.718-106.192-47.696-147.82l185.078-232.895c0.122-0.122 0.122-0.242 0.242-0.242 0.242-0.364 0.607-0.729 0.85-1.092v-0.122l0.729-1.092c0-0.122 0.122-0.122 0.122-0.242 0.242-0.364 0.364-0.729 0.607-0.971 0.122-0.122 0.122-0.242 0.242-0.364 0.122-0.242 0.364-0.607 0.485-0.85 0.122-0.242 0.242-0.364 0.242-0.607 0.122-0.242 0.242-0.485 0.364-0.607l0.364-0.729c0.122-0.122 0.122-0.364 0.242-0.485 0.122-0.364 0.242-0.607 0.364-0.971 0-0.122 0.122-0.242 0.122-0.364l0.364-1.092c0-0.122 0-0.122 0.122-0.242l0.364-1.092v-0.242c0.122-0.364 0.122-0.729 0.242-1.214v-0.242c0.122-0.364 0.122-0.729 0.242-1.092v-0.242c0-0.364 0.122-0.729 0.122-1.092v-0.364c0-0.364 0-0.607 0.122-0.971v-1.942c0.122-0.607 0.122-0.85 0.122-1.092zM709.093 167.207l-57.283 85.804h-274.887l-57.283-85.804h389.454zM612.974 311.145l-65.051 97.454c-0.729 0.971-1.334 2.063-1.821 3.155-10.316-1.334-20.875-1.942-31.554-1.942-10.801 0-21.36 0.729-31.797 1.942-0.485-1.092-1.092-2.185-1.821-3.155l-65.051-97.454h197.093zM183.713 264.541l72.090-88.11 167.238 250.614c-27.428 10.681-52.55 25.972-74.516 44.905l-164.811-207.409zM514.427 858.855c-107.771 0-195.394-87.623-195.394-195.394s87.623-195.394 195.394-195.394 195.394 87.623 195.394 195.394-87.623 195.394-195.394 195.394zM680.573 472.071c-21.967-19.054-47.21-34.467-74.881-45.147l167.481-250.979 72.332 88.595-164.932 207.531z" fill="#ffffff" p-id="2204"></path><path d="M513.821 547.074c-64.202 0-116.509 52.307-116.509 116.509s52.307 116.509 116.509 116.509 116.509-52.307 116.509-116.509-52.307-116.509-116.509-116.509zM513.821 721.837c-32.161 0-58.254-26.093-58.254-58.254s26.093-58.254 58.254-58.254 58.254 26.093 58.254 58.254-26.093 58.254-58.254 58.254z" fill="#ffffff" p-id="2205"></path></svg>