<?xml version="1.0" standalone="no"?><!DOCTYPE svg PUBLIC "-//W3C//DTD SVG 1.1//EN" "http://www.w3.org/Graphics/SVG/1.1/DTD/svg11.dtd"><svg t="1521688444438" class="icon" style="" viewBox="0 0 1024 1024" version="1.1" xmlns="http://www.w3.org/2000/svg" p-id="2663" xmlns:xlink="http://www.w3.org/1999/xlink" width="32" height="32"><defs><style type="text/css"></style></defs><path d="M460.8 384c-56.889 0-102.4-45.511-102.4-99.556V0H79.644c-28.444 0-51.2 22.756-51.2 51.2v867.556c0 28.444 22.756 51.2 51.2 51.2h96.712l142.222-145.067 455.11-438.045H460.8z m0-51.2h329.956L409.6 0v284.444c0 28.445 22.756 48.356 51.2 48.356z m275.911 634.311c28.445 0 51.2-22.755 51.2-51.2V745.244L560.356 964.267H736.71z m247.467-534.755l-56.89-56.89c-17.066-14.222-42.666-14.222-56.888 0l-85.333 82.49 116.622 110.933 85.333-82.489c11.378-14.222 11.378-36.978-2.844-54.044zM406.756 822.044l116.622 110.934 347.022-332.8-116.622-110.934-347.022 332.8zM338.489 998.4l153.6-36.978L375.467 850.49 338.489 998.4z" fill="#ffffff" p-id="2664"></path></svg>