<?xml version="1.0" standalone="no"?><!DOCTYPE svg PUBLIC "-//W3C//DTD SVG 1.1//EN" "http://www.w3.org/Graphics/SVG/1.1/DTD/svg11.dtd"><svg t="1522213510517" class="icon" style="" viewBox="0 0 1024 1024" version="1.1" xmlns="http://www.w3.org/2000/svg" p-id="3685" xmlns:xlink="http://www.w3.org/1999/xlink" width="48" height="48"><defs><style type="text/css"></style></defs><path d="M309.735 223.384c0 21.24-17.193 38.456-38.434 38.456-21.219 0-38.434-17.217-38.434-38.456 0-21.195 17.217-38.412 38.434-38.412 21.24-0.008 38.434 17.217 38.434 38.412z m0 140.948c0 21.252-17.193 38.413-38.434 38.413-21.219 0-38.434-17.17-38.434-38.413 0-21.218 17.217-38.412 38.434-38.412 21.24 0 38.434 17.205 38.434 38.412z m-76.87 140.964c0 21.227 17.208 38.434 38.435 38.434s38.434-17.207 38.434-38.434-17.208-38.434-38.434-38.434-38.434 17.208-38.434 38.434z m424.44-247.189H399.423c-19.139 0-34.693-15.532-34.693-34.727 0-19.15 15.554-34.68 34.693-34.68h257.88c19.172 0 34.694 15.531 34.694 34.68 0.013 19.195-15.51 34.727-34.694 34.727z m0 140.964H399.423c-19.139 0-34.693-15.555-34.693-34.727s15.554-34.728 34.693-34.728h257.88c19.172 0 34.694 15.555 34.694 34.728s-15.51 34.727-34.694 34.727z m0 140.941H399.423c-19.139 0-34.693-15.554-34.693-34.702 0-19.206 15.554-34.727 34.693-34.727h257.88c19.172 0 34.694 15.518 34.694 34.727 0.013 19.15-15.51 34.702-34.694 34.702z m-424.44 97.476c0 21.226 17.208 38.434 38.435 38.434s38.434-17.208 38.434-38.434-17.208-38.434-38.434-38.434-38.434 17.207-38.434 38.434z m424.44 34.727H399.423c-19.139 0-34.693-15.54-34.693-34.727 0-19.172 15.554-34.693 34.693-34.693h257.88c19.172 0 34.694 15.521 34.694 34.693 0.013 19.183-15.51 34.727-34.694 34.727z" fill="#6a8dfb" p-id="3686" data-spm-anchor-id="a313x.7781069.0.i18" class="selected"></path><path d="M1020.688 205.103c0-125.387-46.3-171.689-103.456-171.689h-703.64c-58.77 0-106.623 47.805-106.623 106.632v670.316H3.31c0 156.551 57.776 180.223 129.118 180.223H749.66c58.816 0 106.644-47.805 106.644-106.632v-678.85h164.385zM813.629 883.94c0 35.269-28.689 63.969-63.969 63.969-57.108 0-86.341-12.186-86.341-137.572H149.646V140.032c0-35.269 28.643-63.97 63.938-63.97h628.195c-16.91 26.802-27.446 67.374-27.908 125.272-0.136 1.3-0.25 2.601-0.25 3.765v678.84h0.008z" fill="#6a8dfb" p-id="3687" data-spm-anchor-id="a313x.7781069.0.i17" class="selected"></path></svg>