<?xml version="1.0" standalone="no"?><!DOCTYPE svg PUBLIC "-//W3C//DTD SVG 1.1//EN" "http://www.w3.org/Graphics/SVG/1.1/DTD/svg11.dtd"><svg t="1521787824880" class="icon" style="" viewBox="0 0 1024 1024" version="1.1" xmlns="http://www.w3.org/2000/svg" p-id="2863" xmlns:xlink="http://www.w3.org/1999/xlink" width="16" height="16"><defs><style type="text/css"></style></defs><path d="M803.7325 1024H144.157023A110.07887 110.07887 0 0 1 34.235109 914.13307V181.153351A110.07887 110.07887 0 0 1 144.157023 71.285421h513.004926a36.622643 36.622643 0 0 1 0 73.245287h-513.004926a36.701621 36.701621 0 0 0-36.622643 36.622643v732.979719a36.701621 36.701621 0 0 0 36.622643 36.621643h659.575477a36.649636 36.649636 0 0 0 36.622643-36.621643v-586.22422a36.649636 36.649636 0 0 1 73.297273 0v586.22422A110.07887 110.07887 0 0 1 803.7325 1024zM588.456379 437.77578a36.755606 36.755606 0 0 1-25.901676-62.630289L926.682731 11.044457a36.622643 36.622643 0 1 1 51.828343 51.749365L614.357054 426.894857a35.533951 35.533951 0 0 1-25.900675 10.880923z m-151.267223 0H217.348325a36.622643 36.622643 0 1 1 0-73.245287h219.840831a36.622643 36.622643 0 1 1 0.10597 73.245287z m219.867823 219.734861H217.453296a36.622643 36.622643 0 1 1 0-73.245287h439.708653a36.622643 36.622643 0 0 1 0 73.245287z" fill="#ffffff" p-id="2864"></path></svg>