<?xml version="1.0" standalone="no"?><!DOCTYPE svg PUBLIC "-//W3C//DTD SVG 1.1//EN" "http://www.w3.org/Graphics/SVG/1.1/DTD/svg11.dtd"><svg t="1522155892406" class="icon" style="" viewBox="0 0 1025 1024" version="1.1" xmlns="http://www.w3.org/2000/svg" p-id="3197" xmlns:xlink="http://www.w3.org/1999/xlink" width="48.046875" height="48"><defs><style type="text/css"></style></defs><path d="M860.106 76.872H276.797c-48.063 0-87.025 38.964-87.025 87.027v24.593a822.477 822.477 0 0 1 51.168 17.978v-42.572c0-19.773 16.086-35.859 35.857-35.859h475.945V860.1c0 19.773-16.085 35.859-35.857 35.859h-60.192a86.675 86.675 0 0 1-7.735-35.858v-70.443H240.94V495.756c-13.69-2.539-26.89-5.946-39.527-10.228a267.184 267.184 0 0 1-11.641-4.25v308.38H78.215V860.1c0 48.063 38.962 87.026 87.025 87.026h551.65s5.385-0.12 9.545-0.533c43.568-4.757 77.476-41.658 77.476-86.494V234.34h143.22v-70.444c0-48.06-38.963-87.024-87.025-87.024zM165.24 895.96c-19.772 0-35.857-16.085-35.857-35.858v-19.275H597.79V860.1c0 12.4 1.64 24.417 4.717 35.858H165.24z m730.723-712.786h-91.964v-19.275c0-18.338 13.706-33.657 31.88-35.632l2.087-0.227h22.139c19.772 0 35.858 16.086 35.858 35.859v19.275zM149.639 398.18c40.204 34.952 92.443 52.346 155.65 51.894 3.6 12.642 10.23 28.418 22.435 44.278 15.03 19.531 35.422 35.15 60.615 46.423 29.74 13.307 66.345 20.513 108.797 21.417 14.086 0.307 25.821-10.906 26.122-25.033 0.3-14.126-10.907-25.821-25.033-26.122-60.35-1.285-104.692-17.096-128.229-45.724-16.393-19.937-17.705-39.63-17.801-41.852 0.147-7.161-2.724-13.728-7.91-18.682-5.224-4.99-12.317-7.197-19.523-6.677-77.818 5.631-134.755-18.044-169.213-70.361-11.213-17.024-18.337-34.603-22.831-49.294 32.506 8.691 84.24 25.604 145.429 56.738 97.021 49.366 236.977 145.24 352.76 321.642 4.914 7.485 13.082 11.549 21.413 11.549 4.816 0 9.688-1.358 14.014-4.199 11.813-7.753 15.104-23.614 7.351-35.427-53.802-81.97-117.097-154.454-188.13-215.44-56.914-48.868-118.89-90.496-184.203-123.73-111.82-56.895-194.396-69.476-197.857-69.983a25.582 25.582 0 0 0-29.24 27.034c0.254 3.73 6.948 92.053 75.384 151.55z" fill="#fb4699" p-id="3198"></path></svg>